<svg width="16" height="14" viewBox="0 0 16 14" fill="none" xmlns="http://www.w3.org/2000/svg">
<path d="M14.7692 0H1.23077C0.904349 0 0.591298 0.13409 0.360484 0.372773C0.12967 0.611456 0 0.935179 0 1.27273V12.7273C0 13.0648 0.12967 13.3885 0.360484 13.6272C0.591298 13.8659 0.904349 14 1.23077 14H14.7692C15.0957 14 15.4087 13.8659 15.6395 13.6272C15.8703 13.3885 16 13.0648 16 12.7273V1.27273C16 0.935179 15.8703 0.611456 15.6395 0.372773C15.4087 0.13409 15.0957 0 14.7692 0ZM3.07692 8.90909H1.84615C1.68294 8.90909 1.52642 8.84205 1.41101 8.7227C1.2956 8.60336 1.23077 8.4415 1.23077 8.27273C1.23077 8.10395 1.2956 7.94209 1.41101 7.82275C1.52642 7.70341 1.68294 7.63636 1.84615 7.63636H3.07692C3.24013 7.63636 3.39666 7.70341 3.51207 7.82275C3.62747 7.94209 3.69231 8.10395 3.69231 8.27273C3.69231 8.4415 3.62747 8.60336 3.51207 8.7227C3.39666 8.84205 3.24013 8.90909 3.07692 8.90909ZM3.07692 6.36364H1.84615C1.68294 6.36364 1.52642 6.29659 1.41101 6.17725C1.2956 6.05791 1.23077 5.89605 1.23077 5.72727C1.23077 5.5585 1.2956 5.39664 1.41101 5.2773C1.52642 5.15795 1.68294 5.09091 1.84615 5.09091H3.07692C3.24013 5.09091 3.39666 5.15795 3.51207 5.2773C3.62747 5.39664 3.69231 5.5585 3.69231 5.72727C3.69231 5.89605 3.62747 6.05791 3.51207 6.17725C3.39666 6.29659 3.24013 6.36364 3.07692 6.36364ZM3.07692 3.81818H1.84615C1.68294 3.81818 1.52642 3.75114 1.41101 3.63179C1.2956 3.51245 1.23077 3.35059 1.23077 3.18182C1.23077 3.01304 1.2956 2.85118 1.41101 2.73184C1.52642 2.6125 1.68294 2.54545 1.84615 2.54545H3.07692C3.24013 2.54545 3.39666 2.6125 3.51207 2.73184C3.62747 2.85118 3.69231 3.01304 3.69231 3.18182C3.69231 3.35059 3.62747 3.51245 3.51207 3.63179C3.39666 3.75114 3.24013 3.81818 3.07692 3.81818ZM14.7692 12.7273H4.92308V1.27273H14.7692V12.7273Z" fill="#1C1C1C"/>
</svg>
