<svg width="32" height="32" viewBox="0 0 32 32" fill="none" xmlns="http://www.w3.org/2000/svg">
<path d="M21 17.5C21 20.2615 18.7615 22.5 16 22.5C13.2385 22.5 11 20.2615 11 17.5C11 14.7385 13.2385 12.5 16 12.5C18.7615 12.5 21 14.7385 21 17.5Z" fill="black" fill-opacity="0.1"/>
<path d="M11.5 10.5C11.5 12.7092 9.70923 14.5 7.5 14.5C5.29077 14.5 3.5 12.7092 3.5 10.5C3.5 8.29077 5.29077 6.5 7.5 6.5C9.70923 6.5 11.5 8.29077 11.5 10.5Z" fill="black" fill-opacity="0.1"/>
<path d="M28.5 10.5C28.5 12.7092 26.7092 14.5 24.5 14.5C22.2908 14.5 20.5 12.7092 20.5 10.5C20.5 8.29077 22.2908 6.5 24.5 6.5C26.7092 6.5 28.5 8.29077 28.5 10.5Z" fill="black" fill-opacity="0.1"/>
<path fill-rule="evenodd" clip-rule="evenodd" d="M16 11.5C16 11.5 18.4853 11.5 20.2426 13.2574C20.2426 13.2574 22 15.0147 22 17.5C22 17.5 22 19.9853 20.2426 21.7426C20.2426 21.7426 18.4853 23.5 16 23.5C16 23.5 13.5147 23.5 11.7574 21.7426C11.7574 21.7426 10 19.9853 10 17.5C10 17.5 10 15.0147 11.7574 13.2574C11.7574 13.2574 13.5147 11.5 16 11.5ZM16 13.5C16 13.5 14.3431 13.5 13.1716 14.6716C13.1716 14.6716 12 15.8431 12 17.5C12 17.5 12 19.1569 13.1716 20.3284C13.1716 20.3284 14.3431 21.5 16 21.5C16 21.5 17.6569 21.5 18.8284 20.3284C18.8284 20.3284 20 19.1569 20 17.5C20 17.5 20 15.8431 18.8284 14.6716C18.8284 14.6716 17.6569 13.5 16 13.5Z" fill="#1C1C1C"/>
<path d="M29.6984 18.0982L29.6987 18.0987C29.8575 18.3111 30.0942 18.4518 30.3566 18.4897C30.404 18.4966 30.4518 18.5 30.4997 18.5L30.5015 18.5C30.7167 18.4996 30.926 18.4298 31.0984 18.301C31.351 18.1122 31.4997 17.8154 31.4997 17.5L31.4997 17.4886C31.4972 17.2767 31.4276 17.0711 31.3007 16.9013L31.2999 16.9002C30.0979 15.2925 28.3024 14.3947 28.3024 14.3947C26.5062 13.4967 24.498 13.5 24.498 13.5L24.4997 13.5C25.052 13.5 25.4997 13.9477 25.4997 14.5C25.4997 15.0514 25.0534 15.4988 24.5019 15.5L29.6984 18.0982Z" fill="#1C1C1C"/>
<path d="M4.59179 16.1836C5.96407 15.4974 7.49833 15.5 7.49833 15.5L7.49973 15.5H7.5C7.51546 15.5 7.53092 15.4997 7.54637 15.4989C7.7947 15.4874 8.02984 15.3838 8.20592 15.2083C8.39377 15.0211 8.49956 14.7669 8.5 14.5017L8.5 14.5003V14.5C8.5 14.4395 8.49451 14.3792 8.48361 14.3197C8.39668 13.8455 7.98378 13.5008 7.50167 13.5L7.5 13.5C5.49277 13.497 3.69736 14.3947 3.69736 14.3947C1.90184 15.2925 0.69985 16.9002 0.69985 16.9002L0.699127 16.9012C0.569808 17.0742 0.5 17.2842 0.5 17.5L0.500055 17.5105C0.50052 17.5549 0.503938 17.5992 0.510288 17.6431C0.548235 17.9056 0.6889 18.1422 0.901339 18.301C1.07419 18.4302 1.2842 18.5 1.5 18.5C1.51337 18.5 1.52674 18.4997 1.5401 18.4992C1.84112 18.4871 2.12065 18.34 2.301 18.0987C3.2195 16.8697 4.59179 16.1836 4.59179 16.1836Z" fill="#1C1C1C"/>
<path d="M19.7145 24.5679C21.4185 25.6321 22.3003 27.437 22.3003 27.437L22.3009 27.4381L22.3012 27.4388C22.4689 27.7822 22.8176 28 23.1998 28L23.2272 27.9996C23.37 27.9957 23.5102 27.9612 23.6386 27.8986C23.982 27.7309 24.1998 27.3821 24.1998 27L24.1994 26.9726C24.1955 26.8298 24.1611 26.6895 24.0984 26.5612L24.098 26.5604C22.9646 24.2397 20.774 22.8716 20.774 22.8716C18.583 21.5032 15.9998 21.5032 15.9998 21.5032C13.4166 21.5032 11.2256 22.8716 11.2256 22.8716C9.03503 24.2397 7.9016 26.5604 7.9016 26.5604L7.90125 26.5611C7.83449 26.6978 7.7998 26.8479 7.7998 27L7.79989 27.013C7.80127 27.1193 7.81959 27.2246 7.85414 27.3251C7.94037 27.5759 8.12271 27.7822 8.36103 27.8986C8.49767 27.9653 8.64774 28 8.7998 28L8.82277 27.9997C9.19656 27.9911 9.53434 27.7747 9.6984 27.4388C10.5803 25.6326 12.2851 24.5679 12.2851 24.5679C13.9899 23.5032 15.9998 23.5032 15.9998 23.5032C18.0097 23.5032 19.7145 24.5679 19.7145 24.5679Z" fill="#1C1C1C"/>
<path d="M9.68253 8.44595C10.2794 9.0813 10.4429 9.9376 10.4429 9.9376C10.4926 10.1981 10.6438 10.4282 10.8632 10.5772C11.029 10.6899 11.2247 10.7501 11.4252 10.7501L11.4316 10.7501C11.4924 10.7497 11.553 10.7438 11.6127 10.7324C12.0841 10.6424 12.4252 10.2301 12.4252 9.7501L12.4251 9.74446C12.4248 9.68343 12.4189 9.62255 12.4074 9.5626C12.135 8.13543 11.1401 7.07651 11.1401 7.07651C10.1453 6.0176 8.73788 5.65676 8.73788 5.65676C7.33047 5.29591 5.94885 5.74552 5.94885 5.74552C4.56723 6.19514 3.64173 7.31517 3.64173 7.31517C2.71623 8.4352 2.53511 9.8768 2.53511 9.8768C2.35398 11.3184 2.97366 12.6326 2.97366 12.6326C3.59333 13.9467 4.82078 14.7242 4.82078 14.7242C6.04781 15.5013 7.50016 15.5001 7.50016 15.5001L7.50118 15.5001C7.76639 15.4998 8.02064 15.3942 8.20799 15.2065C8.39508 15.019 8.50016 14.765 8.50016 14.5001L8.50016 14.4991C8.4996 13.9472 8.05205 13.5001 7.50016 13.5001L7.49915 13.5001C6.62739 13.501 5.89091 13.0345 5.89091 13.0345C5.15444 12.5681 4.78263 11.7796 4.78263 11.7796C4.41083 10.9911 4.51951 10.1261 4.51951 10.1261C4.62818 9.26116 5.18348 8.58914 5.18348 8.58914C5.73878 7.91712 6.56775 7.64735 6.56775 7.64735C7.39672 7.37759 8.24117 7.59409 8.24117 7.59409C9.08562 7.8106 9.68253 8.44595 9.68253 8.44595Z" fill="#1C1C1C"/>
<path d="M26.1094 13.0345C25.373 13.501 24.5012 13.5001 24.5012 13.5001L24.5002 13.5001C24.4845 13.5001 24.4688 13.5005 24.4532 13.5012L23.5013 14.5471C23.513 14.7954 23.6168 15.0305 23.7924 15.2065C23.9797 15.3942 24.234 15.4998 24.4992 15.5001L24.5002 15.5001C25.9525 15.5013 27.1796 14.7242 27.1796 14.7242C28.407 13.9467 29.0267 12.6326 29.0267 12.6326C29.6464 11.3184 29.4653 9.8768 29.4653 9.8768C29.2841 8.4352 28.3586 7.31517 28.3586 7.31517C27.4331 6.19514 26.0515 5.74552 26.0515 5.74552C24.6699 5.29591 23.2625 5.65676 23.2625 5.65676C21.8551 6.0176 20.8602 7.07651 20.8602 7.07651C19.8654 8.13543 19.5929 9.5626 19.5929 9.5626C19.5811 9.6244 19.5752 9.68718 19.5752 9.7501C19.5752 9.78015 19.5765 9.81018 19.5793 9.84011C19.6194 10.2846 19.9493 10.6487 20.3877 10.7324C20.4495 10.7442 20.5123 10.7501 20.5752 10.7501C20.6052 10.7501 20.6353 10.7487 20.6652 10.746C21.1097 10.7059 21.4738 10.376 21.5575 9.9376C21.7209 9.0813 22.3178 8.44595 22.3178 8.44595C22.9147 7.8106 23.7592 7.59409 23.7592 7.59409C24.6036 7.37759 25.4326 7.64735 25.4326 7.64735C26.2616 7.91712 26.8169 8.58914 26.8169 8.58914C27.3722 9.26116 27.4809 10.1261 27.4809 10.1261C27.5895 10.9911 27.2177 11.7796 27.2177 11.7796C26.8459 12.5681 26.1094 13.0345 26.1094 13.0345Z" fill="#1C1C1C"/>
</svg>
